<svg xmlns="http://www.w3.org/2000/svg" width="24" height="16" viewBox="0 0 24 16">
  <defs>
    <clipPath id="a"><rect width="24" height="16" rx="2" ry="2"/></clipPath>
  </defs>
  <g clip-path="url(#a)">
    <rect width="24" height="16" fill="#fff"/>
    <g fill="#b22234">
      <rect y="0" width="24" height="1.23"/>
      <rect y="2.46" width="24" height="1.23"/>
      <rect y="4.92" width="24" height="1.23"/>
      <rect y="7.38" width="24" height="1.23"/>
      <rect y="9.84" width="24" height="1.23"/>
      <rect y="12.3" width="24" height="1.23"/>
      <rect y="14.76" width="24" height="1.24"/>
    </g>
    <rect width="10.8" height="8.61" fill="#3c3b6e"/>
    <!-- Simple dots to suggest stars -->
    <g fill="#fff" opacity="0.9">
      <circle cx="1.2" cy="1.1" r="0.25"/>
      <circle cx="2.4" cy="1.1" r="0.25"/>
      <circle cx="3.6" cy="1.1" r="0.25"/>
      <circle cx="4.8" cy="1.1" r="0.25"/>
      <circle cx="6.0" cy="1.1" r="0.25"/>
      <circle cx="7.2" cy="1.1" r="0.25"/>
      <circle cx="8.4" cy="1.1" r="0.25"/>
      <circle cx="1.8" cy="2.2" r="0.25"/>
      <circle cx="3.0" cy="2.2" r="0.25"/>
      <circle cx="4.2" cy="2.2" r="0.25"/>
      <circle cx="5.4" cy="2.2" r="0.25"/>
      <circle cx="6.6" cy="2.2" r="0.25"/>
      <circle cx="7.8" cy="2.2" r="0.25"/>
      <circle cx="1.2" cy="3.3" r="0.25"/>
      <circle cx="2.4" cy="3.3" r="0.25"/>
      <circle cx="3.6" cy="3.3" r="0.25"/>
      <circle cx="4.8" cy="3.3" r="0.25"/>
      <circle cx="6.0" cy="3.3" r="0.25"/>
      <circle cx="7.2" cy="3.3" r="0.25"/>
      <circle cx="8.4" cy="3.3" r="0.25"/>
      <circle cx="1.8" cy="4.4" r="0.25"/>
      <circle cx="3.0" cy="4.4" r="0.25"/>
      <circle cx="4.2" cy="4.4" r="0.25"/>
      <circle cx="5.4" cy="4.4" r="0.25"/>
      <circle cx="6.6" cy="4.4" r="0.25"/>
      <circle cx="7.8" cy="4.4" r="0.25"/>
    </g>
  </g>
</svg>
